<mxfile host="app.diagrams.net" agent="Mozilla/5.0 (Windows NT 6.1; Win64; x64; rv:109.0) Gecko/20100101 Firefox/115.0" version="24.7.6">
  <diagram name="Page-1" id="jINj3cYbaNbGUEZ_ieZX">
    <mxGraphModel dx="739" dy="516" grid="1" gridSize="10" guides="1" tooltips="1" connect="1" arrows="1" fold="1" page="1" pageScale="1" pageWidth="850" pageHeight="1100" math="0" shadow="0">
      <root>
        <mxCell id="0" />
        <mxCell id="1" parent="0" />
        <mxCell id="7I3ds_AqUWlC7D7gJSrE-6" value="" style="group" vertex="1" connectable="0" parent="1">
          <mxGeometry x="240" y="240" width="170" height="40" as="geometry" />
        </mxCell>
        <mxCell id="7I3ds_AqUWlC7D7gJSrE-1" value="" style="rounded=0;whiteSpace=wrap;html=1;" vertex="1" parent="7I3ds_AqUWlC7D7gJSrE-6">
          <mxGeometry width="40" height="40" as="geometry" />
        </mxCell>
        <mxCell id="7I3ds_AqUWlC7D7gJSrE-3" value="" style="rounded=0;whiteSpace=wrap;html=1;" vertex="1" parent="7I3ds_AqUWlC7D7gJSrE-6">
          <mxGeometry x="40" width="40" height="40" as="geometry" />
        </mxCell>
        <mxCell id="7I3ds_AqUWlC7D7gJSrE-4" value="" style="rounded=0;whiteSpace=wrap;html=1;" vertex="1" parent="7I3ds_AqUWlC7D7gJSrE-6">
          <mxGeometry x="80" width="40" height="40" as="geometry" />
        </mxCell>
        <mxCell id="7I3ds_AqUWlC7D7gJSrE-5" value="" style="rounded=0;whiteSpace=wrap;html=1;" vertex="1" parent="7I3ds_AqUWlC7D7gJSrE-6">
          <mxGeometry x="120" width="40" height="40" as="geometry" />
        </mxCell>
        <mxCell id="7I3ds_AqUWlC7D7gJSrE-17" value="&lt;font style=&quot;font-size: 16px;&quot;&gt;1&lt;/font&gt;" style="text;html=1;align=center;verticalAlign=middle;whiteSpace=wrap;rounded=0;" vertex="1" parent="7I3ds_AqUWlC7D7gJSrE-6">
          <mxGeometry x="-10" y="5" width="60" height="30" as="geometry" />
        </mxCell>
        <mxCell id="7I3ds_AqUWlC7D7gJSrE-18" value="2" style="text;html=1;align=center;verticalAlign=middle;whiteSpace=wrap;rounded=0;" vertex="1" parent="7I3ds_AqUWlC7D7gJSrE-6">
          <mxGeometry x="30" y="5" width="60" height="30" as="geometry" />
        </mxCell>
        <mxCell id="7I3ds_AqUWlC7D7gJSrE-19" value="3" style="text;html=1;align=center;verticalAlign=middle;whiteSpace=wrap;rounded=0;" vertex="1" parent="7I3ds_AqUWlC7D7gJSrE-6">
          <mxGeometry x="70" y="5" width="60" height="30" as="geometry" />
        </mxCell>
        <mxCell id="7I3ds_AqUWlC7D7gJSrE-20" value="&lt;font size=&quot;1&quot; color=&quot;#ff0000&quot;&gt;&lt;b&gt;&lt;font style=&quot;font-size: 18px;&quot;&gt;4&lt;/font&gt;&lt;/b&gt;&lt;/font&gt;" style="text;html=1;align=center;verticalAlign=middle;whiteSpace=wrap;rounded=0;" vertex="1" parent="7I3ds_AqUWlC7D7gJSrE-6">
          <mxGeometry x="110" y="5" width="60" height="30" as="geometry" />
        </mxCell>
        <mxCell id="7I3ds_AqUWlC7D7gJSrE-7" value="" style="group" vertex="1" connectable="0" parent="1">
          <mxGeometry x="400" y="240" width="170" height="40" as="geometry" />
        </mxCell>
        <mxCell id="7I3ds_AqUWlC7D7gJSrE-8" value="" style="rounded=0;whiteSpace=wrap;html=1;" vertex="1" parent="7I3ds_AqUWlC7D7gJSrE-7">
          <mxGeometry width="40" height="40" as="geometry" />
        </mxCell>
        <mxCell id="7I3ds_AqUWlC7D7gJSrE-9" value="" style="rounded=0;whiteSpace=wrap;html=1;" vertex="1" parent="7I3ds_AqUWlC7D7gJSrE-7">
          <mxGeometry x="40" width="40" height="40" as="geometry" />
        </mxCell>
        <mxCell id="7I3ds_AqUWlC7D7gJSrE-10" value="" style="rounded=0;whiteSpace=wrap;html=1;" vertex="1" parent="7I3ds_AqUWlC7D7gJSrE-7">
          <mxGeometry x="80" width="40" height="40" as="geometry" />
        </mxCell>
        <mxCell id="7I3ds_AqUWlC7D7gJSrE-11" value="" style="rounded=0;whiteSpace=wrap;html=1;" vertex="1" parent="7I3ds_AqUWlC7D7gJSrE-7">
          <mxGeometry x="120" width="40" height="40" as="geometry" />
        </mxCell>
        <mxCell id="7I3ds_AqUWlC7D7gJSrE-21" value="5" style="text;html=1;align=center;verticalAlign=middle;whiteSpace=wrap;rounded=0;" vertex="1" parent="7I3ds_AqUWlC7D7gJSrE-7">
          <mxGeometry x="-10" y="5" width="60" height="30" as="geometry" />
        </mxCell>
        <mxCell id="7I3ds_AqUWlC7D7gJSrE-22" value="6" style="text;html=1;align=center;verticalAlign=middle;whiteSpace=wrap;rounded=0;" vertex="1" parent="7I3ds_AqUWlC7D7gJSrE-7">
          <mxGeometry x="30" y="5" width="60" height="30" as="geometry" />
        </mxCell>
        <mxCell id="7I3ds_AqUWlC7D7gJSrE-23" value="7" style="text;html=1;align=center;verticalAlign=middle;whiteSpace=wrap;rounded=0;" vertex="1" parent="7I3ds_AqUWlC7D7gJSrE-7">
          <mxGeometry x="70" y="5" width="60" height="30" as="geometry" />
        </mxCell>
        <mxCell id="7I3ds_AqUWlC7D7gJSrE-24" value="&lt;font color=&quot;#ff0000&quot;&gt;&lt;b&gt;&lt;font style=&quot;font-size: 18px;&quot;&gt;8&lt;/font&gt;&lt;/b&gt;&lt;/font&gt;" style="text;html=1;align=center;verticalAlign=middle;whiteSpace=wrap;rounded=0;" vertex="1" parent="7I3ds_AqUWlC7D7gJSrE-7">
          <mxGeometry x="110" y="5" width="60" height="30" as="geometry" />
        </mxCell>
        <mxCell id="7I3ds_AqUWlC7D7gJSrE-12" value="" style="group" vertex="1" connectable="0" parent="1">
          <mxGeometry x="560" y="240" width="170" height="40" as="geometry" />
        </mxCell>
        <mxCell id="7I3ds_AqUWlC7D7gJSrE-13" value="" style="rounded=0;whiteSpace=wrap;html=1;" vertex="1" parent="7I3ds_AqUWlC7D7gJSrE-12">
          <mxGeometry width="40" height="40" as="geometry" />
        </mxCell>
        <mxCell id="7I3ds_AqUWlC7D7gJSrE-14" value="" style="rounded=0;whiteSpace=wrap;html=1;" vertex="1" parent="7I3ds_AqUWlC7D7gJSrE-12">
          <mxGeometry x="40" width="40" height="40" as="geometry" />
        </mxCell>
        <mxCell id="7I3ds_AqUWlC7D7gJSrE-15" value="" style="rounded=0;whiteSpace=wrap;html=1;" vertex="1" parent="7I3ds_AqUWlC7D7gJSrE-12">
          <mxGeometry x="80" width="40" height="40" as="geometry" />
        </mxCell>
        <mxCell id="7I3ds_AqUWlC7D7gJSrE-16" value="" style="rounded=0;whiteSpace=wrap;html=1;" vertex="1" parent="7I3ds_AqUWlC7D7gJSrE-12">
          <mxGeometry x="120" width="40" height="40" as="geometry" />
        </mxCell>
        <mxCell id="7I3ds_AqUWlC7D7gJSrE-25" value="9" style="text;html=1;align=center;verticalAlign=middle;whiteSpace=wrap;rounded=0;" vertex="1" parent="7I3ds_AqUWlC7D7gJSrE-12">
          <mxGeometry x="-10" y="5" width="60" height="30" as="geometry" />
        </mxCell>
        <mxCell id="7I3ds_AqUWlC7D7gJSrE-26" value="10" style="text;html=1;align=center;verticalAlign=middle;whiteSpace=wrap;rounded=0;" vertex="1" parent="7I3ds_AqUWlC7D7gJSrE-12">
          <mxGeometry x="30" y="5" width="60" height="30" as="geometry" />
        </mxCell>
        <mxCell id="7I3ds_AqUWlC7D7gJSrE-27" value="11" style="text;html=1;align=center;verticalAlign=middle;whiteSpace=wrap;rounded=0;" vertex="1" parent="7I3ds_AqUWlC7D7gJSrE-12">
          <mxGeometry x="70" y="5" width="60" height="30" as="geometry" />
        </mxCell>
        <mxCell id="7I3ds_AqUWlC7D7gJSrE-28" value="&lt;font style=&quot;font-size: 18px;&quot; color=&quot;#ff0000&quot;&gt;&lt;b&gt;12&lt;/b&gt;&lt;/font&gt;" style="text;html=1;align=center;verticalAlign=middle;whiteSpace=wrap;rounded=0;" vertex="1" parent="7I3ds_AqUWlC7D7gJSrE-12">
          <mxGeometry x="110" y="5" width="60" height="30" as="geometry" />
        </mxCell>
        <mxCell id="7I3ds_AqUWlC7D7gJSrE-29" value="" style="rounded=0;whiteSpace=wrap;html=1;" vertex="1" parent="1">
          <mxGeometry x="240" y="360" width="160" height="40" as="geometry" />
        </mxCell>
        <mxCell id="7I3ds_AqUWlC7D7gJSrE-30" value="" style="rounded=0;whiteSpace=wrap;html=1;" vertex="1" parent="1">
          <mxGeometry x="400" y="360" width="160" height="40" as="geometry" />
        </mxCell>
        <mxCell id="7I3ds_AqUWlC7D7gJSrE-31" value="" style="rounded=0;whiteSpace=wrap;html=1;" vertex="1" parent="1">
          <mxGeometry x="560" y="360" width="160" height="40" as="geometry" />
        </mxCell>
        <mxCell id="7I3ds_AqUWlC7D7gJSrE-32" value="&lt;font size=&quot;1&quot; color=&quot;#ff0000&quot;&gt;&lt;b style=&quot;font-size: 18px;&quot;&gt;1&lt;/b&gt;&lt;/font&gt;" style="text;html=1;align=center;verticalAlign=middle;whiteSpace=wrap;rounded=0;" vertex="1" parent="1">
          <mxGeometry x="350" y="365" width="60" height="30" as="geometry" />
        </mxCell>
        <mxCell id="7I3ds_AqUWlC7D7gJSrE-33" value="&lt;font style=&quot;font-size: 18px;&quot; color=&quot;#ff0000&quot;&gt;&lt;b&gt;2&lt;/b&gt;&lt;/font&gt;" style="text;html=1;align=center;verticalAlign=middle;whiteSpace=wrap;rounded=0;" vertex="1" parent="1">
          <mxGeometry x="510" y="365" width="60" height="30" as="geometry" />
        </mxCell>
        <mxCell id="7I3ds_AqUWlC7D7gJSrE-34" value="&lt;font size=&quot;1&quot; color=&quot;#ff0000&quot;&gt;&lt;b style=&quot;font-size: 18px;&quot;&gt;3&lt;/b&gt;&lt;/font&gt;" style="text;html=1;align=center;verticalAlign=middle;whiteSpace=wrap;rounded=0;" vertex="1" parent="1">
          <mxGeometry x="670" y="365" width="60" height="30" as="geometry" />
        </mxCell>
        <mxCell id="7I3ds_AqUWlC7D7gJSrE-35" value="" style="shape=flexArrow;endArrow=classic;html=1;rounded=0;" edge="1" parent="1">
          <mxGeometry width="50" height="50" relative="1" as="geometry">
            <mxPoint x="480.76000000000005" y="300" as="sourcePoint" />
            <mxPoint x="480.76000000000005" y="350" as="targetPoint" />
          </mxGeometry>
        </mxCell>
        <mxCell id="7I3ds_AqUWlC7D7gJSrE-36" value="&lt;i&gt;decimation factor = 4&lt;/i&gt;" style="text;html=1;align=center;verticalAlign=middle;whiteSpace=wrap;rounded=0;" vertex="1" parent="1">
          <mxGeometry x="490" y="300" width="120" height="30" as="geometry" />
        </mxCell>
        <mxCell id="7I3ds_AqUWlC7D7gJSrE-38" value="&lt;font style=&quot;font-size: 14px;&quot;&gt;&lt;i&gt;frequency register&lt;br&gt;&lt;/i&gt;&lt;/font&gt;" style="text;html=1;align=center;verticalAlign=middle;whiteSpace=wrap;rounded=0;" vertex="1" parent="1">
          <mxGeometry x="420" y="420" width="120" height="30" as="geometry" />
        </mxCell>
        <mxCell id="7I3ds_AqUWlC7D7gJSrE-39" value="" style="endArrow=blockThin;html=1;rounded=0;endFill=1;" edge="1" parent="1">
          <mxGeometry width="50" height="50" relative="1" as="geometry">
            <mxPoint x="350" y="160" as="sourcePoint" />
            <mxPoint x="560" y="160" as="targetPoint" />
          </mxGeometry>
        </mxCell>
        <mxCell id="7I3ds_AqUWlC7D7gJSrE-40" value="" style="endArrow=blockThin;html=1;rounded=0;endFill=1;" edge="1" parent="1">
          <mxGeometry width="50" height="50" relative="1" as="geometry">
            <mxPoint x="400" y="200" as="sourcePoint" />
            <mxPoint x="400" y="40" as="targetPoint" />
          </mxGeometry>
        </mxCell>
        <mxCell id="7I3ds_AqUWlC7D7gJSrE-41" value="" style="endArrow=none;html=1;rounded=0;strokeColor=#EA6B66;strokeWidth=2;" edge="1" parent="1">
          <mxGeometry width="50" height="50" relative="1" as="geometry">
            <mxPoint x="400" y="160" as="sourcePoint" />
            <mxPoint x="520" y="40" as="targetPoint" />
          </mxGeometry>
        </mxCell>
        <mxCell id="7I3ds_AqUWlC7D7gJSrE-42" value="" style="endArrow=none;html=1;rounded=0;strokeColor=#7EA6E0;strokeWidth=2;" edge="1" parent="1">
          <mxGeometry width="50" height="50" relative="1" as="geometry">
            <mxPoint x="400" y="160" as="sourcePoint" />
            <mxPoint x="520" y="100" as="targetPoint" />
          </mxGeometry>
        </mxCell>
        <mxCell id="7I3ds_AqUWlC7D7gJSrE-43" value="&lt;font style=&quot;font-size: 16px;&quot;&gt;integrator&lt;/font&gt;" style="text;html=1;align=center;verticalAlign=middle;whiteSpace=wrap;rounded=0;" vertex="1" parent="1">
          <mxGeometry x="330" y="40" width="60" height="30" as="geometry" />
        </mxCell>
        <mxCell id="7I3ds_AqUWlC7D7gJSrE-44" value="&lt;font style=&quot;font-size: 16px;&quot;&gt;t&lt;/font&gt;" style="text;html=1;align=center;verticalAlign=middle;whiteSpace=wrap;rounded=0;" vertex="1" parent="1">
          <mxGeometry x="520" y="160" width="60" height="30" as="geometry" />
        </mxCell>
        <mxCell id="7I3ds_AqUWlC7D7gJSrE-47" value="" style="endArrow=classic;html=1;rounded=0;strokeColor=#B3B3B3;" edge="1" parent="1">
          <mxGeometry width="50" height="50" relative="1" as="geometry">
            <mxPoint x="500" y="70" as="sourcePoint" />
            <mxPoint x="510" y="100" as="targetPoint" />
            <Array as="points">
              <mxPoint x="510" y="80" />
            </Array>
          </mxGeometry>
        </mxCell>
        <mxCell id="7I3ds_AqUWlC7D7gJSrE-48" value="&lt;font style=&quot;font-size: 10px;&quot; color=&quot;#666666&quot;&gt;decimate&lt;/font&gt;" style="text;html=1;align=center;verticalAlign=middle;whiteSpace=wrap;rounded=0;" vertex="1" parent="1">
          <mxGeometry x="508" y="65" width="60" height="30" as="geometry" />
        </mxCell>
      </root>
    </mxGraphModel>
  </diagram>
</mxfile>
